PathFileType	4	(X/Y/Z)	s01c0101.trc
DataRate	CameraRate	NumFrames	NumMarkers	Units	OrigDataRate	OrigDataStartFrame	OrigNumFrames
200	200	4	47	mm	200	750	2000
Frame#	Time	racr			lacr			c7			jug			rlel			rdr			llel			ldr			s2			lic			ric			lasi			rasi			rpsi			lpsi			rgt			lgt			rth1			rth2			rth3			rth4			rlfc			rsh1			rsh2			rsh3			rsh4			rlmal			rmmal			rcal			rtoe			rmt5			lth1			lth2			lth4			lth3			llfc			lsh1			lsh2			lsh3			lsh4			llmal			lcal			ltoe			lmt5			SBIKE			LBIKE			RBIKE			
		X1	Y1	Z1	X2	Y2	Z2	X3	Y3	Z3	X4	Y4	Z4	X5	Y5	Z5	X6	Y6	Z6	X7	Y7	Z7	X8	Y8	Z8	X9	Y9	Z9	X10	Y10	Z10	X11	Y11	Z11	X12	Y12	Z12	X13	Y13	Z13	X14	Y14	Z14	X15	Y15	Z15	X16	Y16	Z16	X17	Y17	Z17	X18	Y18	Z18	X19	Y19	Z19	X20	Y20	Z20	X21	Y21	Z21	X22	Y22	Z22	X23	Y23	Z23	X24	Y24	Z24	X25	Y25	Z25	X26	Y26	Z26	X27	Y27	Z27	X28	Y28	Z28	X29	Y29	Z29	X30	Y30	Z30	X31	Y31	Z31	X32	Y32	Z32	X33	Y33	Z33	X34	Y34	Z34	X35	Y35	Z35	X36	Y36	Z36	X37	Y37	Z37	X38	Y38	Z38	X39	Y39	Z39	X40	Y40	Z40	X41	Y41	Z41	X42	Y42	Z42	X43	Y43	Z43	X44	Y44	Z44	X45	Y45	Z45	X46	Y46	Z46	X47	Y47	Z47	
750	3.7500	483.109167	1347.373444	-145.394776	518.175281	1294.177565	-441.749427	444.293258	1394.260652	-303.586424	458.272317	1226.046269	-286.180105	539.878138	1079.832747	-32.312514	712.405163	873.953875	-80.628147	542.208149	1032.445642	-566.535343	708.884533	856.650187	-468.901082	-71.128548	1159.848650	-289.193600	93.492107	1155.775788	-464.619758	88.684577	1188.932004	-130.177014	99.026827	1103.199193	-433.649386	117.419241	1140.073218	-161.409464	-44.752571	1207.820133	-242.163170	-46.923546	1198.810546	-347.640419	48.097605	1083.300960	-94.297839	42.238542	1014.104662	-468.313306	162.548164	1005.887039	-78.000302	237.839362	971.681105	-81.802445	316.531767	927.935024	-92.260113	262.058904	1018.731412	-101.638245	394.227248	843.256230	-113.460533	358.391220	729.935849	-80.236786	340.573387	647.079127	-83.595458	313.182240	562.856610	-91.964832	384.904715	636.501521	-123.160091	267.864745	447.031181	-103.453224	303.135881	461.475771	-186.580158	219.623040	412.241463	-157.460530	490.550350	407.212184	-141.166469	388.543980	370.257872	-71.678708	114.473125	910.063990	-474.632498	185.501059	860.038699	-464.055955	217.556137	903.017699	-461.494962	249.287548	804.840558	-449.443695	306.678279	713.532563	-429.654337	221.938327	642.438922	-460.752445	168.986308	575.679363	-452.585530	110.930429	512.781223	-435.563829	210.564333	545.581024	-418.721894	27.065289	420.273160	-417.187998	-27.914512	418.045273	-371.711524	184.192376	237.078484	-379.668324	85.325021	281.164229	-443.870546	-228.495750	891.558436	-254.574128	-21.304144	79.928337	-454.176715	-21.318890	80.259466	-54.164319	
751	3.7550	483.534594	1347.267554	-145.013937	518.778642	1293.534553	-441.103079	444.433833	1393.910301	-302.867058	458.737166	1225.793824	-285.713544	540.329559	1079.504072	-31.839058	712.490539	873.622093	-80.580841	542.497549	1032.639709	-567.418517	708.971849	856.606490	-469.194166	-71.104086	1158.940201	-287.486206	93.451214	1155.145101	-463.800527	88.758550	1186.423242	-128.866708	98.884174	1102.926231	-432.890296	117.787600	1138.696194	-160.723484	-44.420758	1206.578487	-240.356418	-47.356793	1198.709194	-345.709689	48.855570	1080.679479	-93.379633	42.711535	1014.759645	-467.871483	162.656539	1001.445902	-77.570685	237.108372	965.448571	-81.527906	314.697037	919.776710	-92.538961	262.482064	1012.043143	-101.322132	390.754089	833.803532	-113.447267	356.327536	720.533583	-79.988217	340.113796	637.305256	-83.155973	314.335303	552.525519	-91.401836	384.195616	627.246803	-123.228856	270.522220	435.572149	-102.801399	306.016266	450.344386	-186.277350	222.351043	401.351719	-156.980679	493.384005	396.270127	-141.134127	391.647768	359.069763	-71.628498	116.513834	911.980730	-474.900223	187.822509	862.792539	-464.890342	219.398776	906.137973	-461.964743	251.974528	808.101561	-450.562508	311.312379	718.468544	-430.967611	225.512276	649.545658	-461.914667	170.127646	583.853825	-452.236120	112.427995	521.889088	-435.929024	212.577114	552.741557	-419.581183	26.735015	431.381264	-417.363566	-28.524864	429.960035	-371.748518	181.444401	246.458994	-379.649775	83.106533	291.668378	-443.823993	-228.442356	891.566653	-254.543302	-21.283702	79.936305	-454.178908	-21.311931	80.270784	-54.148964	
752	3.7600	484.006744	1347.182057	-144.512192	519.342606	1292.710987	-440.471472	444.624659	1393.570397	-302.086557	459.274041	1225.727541	-284.646229	540.882641	1079.142527	-31.315707	712.533274	873.280422	-80.480363	542.814652	1032.678045	-568.258332	708.977197	856.620372	-469.511342	-71.049964	1158.063620	-285.684615	93.243896	1154.300420	-462.568239	88.867538	1183.899807	-127.452332	98.734841	1102.727748	-431.982792	118.093234	1137.552461	-159.382273	-44.051258	1205.343114	-238.477680	-47.713340	1198.303620	-343.581410	49.717392	1077.987876	-92.347290	43.081282	1015.688312	-467.409393	162.730680	997.048900	-77.146918	236.404558	959.110594	-81.323942	312.488319	911.521315	-92.901786	262.729537	1005.144417	-100.993417	387.153373	824.784273	-113.717608	353.823793	711.336046	-79.704399	339.234473	627.722933	-82.734275	314.960197	542.513185	-90.775347	383.505892	618.548026	-122.613599	272.513830	424.387052	-102.231940	308.476971	439.794651	-185.402639	224.572928	390.801111	-156.458119	495.620250	385.093457	-141.114581	393.907195	347.997671	-71.502820	118.600579	914.112867	-475.207474	190.274713	865.892580	-465.943743	221.385246	909.796860	-463.164078	255.351526	812.181013	-452.631926	316.455980	724.185472	-432.454075	229.452746	656.856024	-462.934931	173.062673	591.973959	-453.068062	114.328584	531.163347	-436.306133	215.075008	560.524228	-420.186321	27.073880	442.696240	-417.529906	-28.432246	441.913674	-371.772407	179.370353	255.936599	-379.682628	81.520566	302.225948	-443.822513	-228.408165	891.561755	-254.471615	-21.274561	79.932513	-454.155583	-21.305621	80.239895	-54.155360	
753	3.7650	484.378132	1347.071600	-143.963474	519.892020	1291.842817	-439.725061	444.876959	1393.300961	-301.195727	459.586991	1225.445401	-284.049755	541.370671	1078.749275	-30.775790	712.653780	872.955467	-80.474169	543.159207	1032.569909	-568.936736	708.971907	856.702967	-469.796545	-71.187073	1157.393750	-283.624508	93.156089	1153.873994	-461.651461	88.970987	1181.499126	-125.936580	98.621826	1102.600765	-431.052221	118.552703	1136.167066	-158.383778	-43.633219	1204.158365	-236.296076	-48.022358	1197.944069	-341.306005	50.462444	1075.382086	-91.261737	43.394499	1016.646671	-466.884045	162.562399	992.552945	-76.651537	235.134380	952.772520	-81.210552	309.997265	903.232524	-93.285667	262.695309	998.226088	-100.519223	383.320618	815.995303	-114.000989	350.951667	702.154637	-79.358814	337.704656	618.316975	-82.215475	314.923611	532.667649	-90.270168	382.283548	609.973339	-121.917669	273.743587	413.711318	-101.799826	309.889316	428.659222	-185.098302	226.290859	380.547154	-155.986718	497.306605	373.715106	-140.947206	395.686350	336.830566	-71.371750	120.744189	916.480088	-475.523973	193.197152	869.620704	-467.127090	223.540780	914.108930	-464.064884	259.661176	817.072891	-454.542852	322.071959	730.902698	-433.874666	233.841981	664.337924	-464.045945	176.203766	600.671352	-453.754453	116.554987	540.777749	-436.663876	217.999079	568.545102	-421.073453	28.059742	453.959760	-417.659851	-27.631731	454.017653	-371.878447	177.995142	265.574840	-379.683016	80.651067	312.975271	-443.786367	-228.368376	891.564194	-254.391790	-21.280160	79.943122	-454.181880	-21.312127	80.221920	-54.144526	
